<svg width="1440" height="527" viewBox="0 0 1440 527" fill="none" xmlns="http://www.w3.org/2000/svg">
<g clip-path="url(#clip0_6066_5157)">
<rect width="1440" height="527" fill="#07215D"/>
<g opacity="0.2">
<path d="M1179.55 529.29L1239.05 478.747V529.29H1179.55Z" fill="#3C90BE"/>
<path d="M1299.78 531.811L1239.57 478.609L1452.5 430.112L1418.49 531.811H1299.78Z" fill="url(#paint0_linear_6066_5157)"/>
<path d="M1115.92 533.54L996.887 398.953L1006.98 533.54H1115.92Z" fill="#1273AE"/>
<path d="M1124.2 370.663L997.931 398.883L1115.31 534.193H1143.01L1124.2 370.663Z" fill="#09528A"/>
<path opacity="0.5" d="M422.969 502.457L262.194 408.957L411.846 326.134L422.969 502.457Z" fill="#3C90BE"/>
<path d="M177.077 304.472L-6.14224 422.873V274.223L177.077 304.472Z" fill="url(#paint1_linear_6066_5157)"/>
<path d="M176.918 304.538L212.541 365.682L-2.59008 434.548L-4.48584 434.637V421.676L176.918 304.538Z" fill="#07528A"/>
<path d="M261.338 408.028L212.476 365.703L-8.86304 436.991V438.303L261.338 408.028Z" fill="#091F3E" stroke="url(#paint2_linear_6066_5157)" stroke-width="2"/>
<path opacity="0.6" d="M408.898 325.89L176.89 304.555L212.53 365.687L408.898 325.89Z" fill="#1D3566" stroke="url(#paint3_linear_6066_5157)" stroke-width="2"/>
<path opacity="0.6" d="M363.693 224.403L177.532 304.563L411.683 326.185L442.271 224.403H363.693Z" fill="#3C90BE"/>
<path d="M122.812 229.722L176.481 304.484L232.019 229.722H122.812Z" fill="#091F3E"/>
<path d="M177.092 305.159L-4.6407 276.033H-12.0249V262.905L35.9723 229.676H124.993L177.092 305.159Z" fill="#1D3566"/>
<path d="M94.5556 536.838L-2.78427 463.833H-7.84378V438.315L261.346 409L131.545 536.838H94.5556Z" fill="#1D3566"/>
<path d="M90.8053 531.502L-6.14224 460.319V531.502H90.8053Z" fill="#3C90BE"/>
<path d="M261.277 408.937L309.809 527.967V534.278L136.29 532.339L261.277 408.937Z" fill="url(#paint4_linear_6066_5157)"/>
<path d="M601.506 519.317L426.382 501.221V527.408H601.506V519.317Z" fill="#0B5282"/>
<path opacity="0.5" d="M438.84 237.534L412.015 326.268L480.373 365.723L456.786 237.534H438.84Z" fill="url(#paint5_linear_6066_5157)"/>
<path d="M480.121 365.826L457.565 242.934V235.739H599.124L480.121 365.826Z" fill="#135C8F"/>
<path d="M480.145 365.466L426.417 504.062L598.754 521.619L480.145 365.466Z" fill="#16629D"/>
<path d="M310.786 531.502L262.021 410.076L474.88 531.502H310.786Z" fill="#07528A"/>
<path d="M753.147 453.965L598.417 520.479V531.803H728.76L753.147 453.965Z" fill="#1273AE"/>
<path d="M905.961 327.678L849.493 449.42L753.018 454.174L905.961 327.678Z" fill="#1273AE"/>
<path d="M752.942 454.27L729.723 527.678V529.87H788.146L849.821 448.512L752.942 454.27Z" fill="#196298"/>
<path d="M918.905 505.956L850.47 448.249L784.644 532.634H880.918L918.905 505.956Z" fill="#0A4D7B"/>
<path d="M996.746 397.537L918.86 505.971L936.497 532.269H1006.52L996.746 397.537Z" fill="#0A4874"/>
<path d="M689.93 347.585L483.103 366.958L753.144 454.583L689.93 347.585Z" fill="#0C5488"/>
<path opacity="0.5" d="M753.08 454.456L597.819 521.059L480.513 365.568L753.08 454.456Z" fill="url(#paint6_linear_6066_5157)"/>
<path d="M1012.92 289.743L979.029 243.449V232.151H1020.09L1176.05 315.37L1012.92 289.743Z" fill="url(#paint7_linear_6066_5157)"/>
<path d="M1124.52 370.482L1014.58 290.845L1175.78 314.819L1124.52 370.482Z" fill="#09528A"/>
<path d="M1174.95 315.37L1041.58 243.449V231.324L1224.83 232.702L1174.95 315.37Z" fill="#1273AE"/>
<path d="M1254.38 407.798L1175.15 315.186L1124.21 370.032L1254.38 407.798Z" fill="#3C90BE"/>
<path d="M1255.21 409.397L1176.41 315.362L1305.85 283.382L1255.21 409.397Z" fill="#1D3566" stroke="url(#paint8_linear_6066_5157)" stroke-width="2"/>
<path d="M1305.21 283.382L1272.47 239.981H1408.76L1305.21 283.382Z" fill="url(#paint9_linear_6066_5157)"/>
<path d="M1402.17 398.561L1367.92 323.406L1255.01 408.372L1402.17 398.561Z" fill="url(#paint10_linear_6066_5157)"/>
<path d="M1420.09 235.743L1305.34 283.072L1368.24 323.459L1444.19 235.743H1420.09Z" fill="#0C1124"/>
<path d="M1439.62 241.214L1368.13 323.487L1450.93 312.184V241.214H1439.62Z" fill="#1C3666"/>
<path d="M1254.9 408.334L1123.95 370.058L1239.59 478.871L1254.9 408.334Z" fill="url(#paint11_linear_6066_5157)"/>
<path d="M1451.44 429.913L1254.77 408.62L1239.05 479.045L1451.44 429.913Z" fill="#1C3666"/>
<path d="M1401.94 398.124L1256.2 408.303L1451.36 429.766L1401.94 398.124Z" fill="#0D1125"/>
<path d="M1401.73 398.075L1367.82 324.02L1455.51 310.378L1401.73 398.075Z" fill="#07528A"/>
<path d="M1453.75 311.122L1402.32 398.134L1453.75 431.392V311.122Z" fill="#3C90BE"/>
<path d="M1452.5 430.112L1418.83 527.994H1452.5V430.112Z" fill="#07528A"/>
</g>
<g opacity="0.6" filter="url(#filter0_f_6066_5157)">
<path d="M364 466.008H1076V485.008L886.578 478.18H579.123L364 480.852V466.008Z" fill="url(#paint12_linear_6066_5157)"/>
</g>
<g opacity="0.3">
<rect opacity="0.5" x="1216.67" y="265.946" width="0.988103" height="0.988103" fill="white"/>
<rect opacity="0.2" x="1257.22" y="265.946" width="1.48215" height="1.48215" fill="white"/>
<rect x="1277.12" y="265.946" width="1.97621" height="1.97621" fill="white"/>
<rect opacity="0.7" x="1378.12" y="265.946" width="1.48215" height="1.48215" fill="white"/>
<rect opacity="0.5" width="0.988103" height="0.988103" transform="matrix(-1 0 0 1 1379.36 387.343)" fill="white"/>
<rect opacity="0.5" width="0.988103" height="0.988103" transform="matrix(-1 0 0 1 1339.06 387.343)" fill="white"/>
<rect opacity="0.2" width="1.48215" height="1.48215" transform="matrix(-1 0 0 1 1299 387.343)" fill="white"/>
<rect opacity="0.1" width="1.48215" height="1.48215" transform="matrix(-1 0 0 1 1278.85 387.343)" fill="white"/>
<rect opacity="0.5" width="1.97621" height="1.97621" transform="matrix(-1 0 0 1 1258.95 387.343)" fill="white"/>
<rect opacity="0.1" width="11.8502" height="0.988103" transform="matrix(-1 0 0 1 1249.17 387.343)" fill="white"/>
<rect opacity="0.1" width="1.48215" height="1.48215" transform="matrix(-1 0 0 1 1217.91 387.343)" fill="white"/>
<rect opacity="0.2" x="1236.82" y="286.096" width="1.97621" height="1.97621" fill="white"/>
<rect opacity="0.1" x="1257.22" y="286.096" width="1.48215" height="1.48215" fill="white"/>
<rect opacity="0.7" x="1337.82" y="286.096" width="1.48215" height="1.48215" fill="white"/>
<rect x="1398.02" y="286.096" width="1.97621" height="1.97621" fill="white"/>
<rect opacity="0.7" width="1.48215" height="1.48215" transform="matrix(-1 0 0 1 1399.75 407.494)" fill="white"/>
<rect opacity="0.7" width="1.48215" height="1.48215" transform="matrix(-1 0 0 1 1299 407.494)" fill="white"/>
<rect opacity="0.1" width="1.48215" height="1.48215" transform="matrix(-1 0 0 1 1278.85 407.494)" fill="white"/>
<rect opacity="0.1" width="0.988103" height="0.988103" transform="matrix(-1 0 0 1 1258.45 407.494)" fill="white"/>
<rect opacity="0.1" width="1.48215" height="1.48215" transform="matrix(-1 0 0 1 1238.55 407.494)" fill="white"/>
<rect opacity="0.5" width="0.988103" height="0.988103" transform="matrix(-1 0 0 1 1217.66 407.494)" fill="white"/>
<rect opacity="0.7" x="1237.07" y="306.247" width="1.48215" height="1.48215" fill="white"/>
<rect opacity="0.5" width="0.988103" height="0.988103" transform="matrix(-1 0 0 1 1379.36 427.644)" fill="white"/>
<rect opacity="0.5" width="0.988103" height="0.988103" transform="matrix(-1 0 0 1 1359.2 427.644)" fill="white"/>
<rect width="1.97621" height="1.97621" transform="matrix(-1 0 0 1 1319.4 427.644)" fill="white"/>
<rect width="1.97621" height="1.97621" transform="matrix(-1 0 0 1 1279.1 427.644)" fill="white"/>
<rect opacity="0.1" x="1216.18" y="326.397" width="1.97621" height="1.97621" fill="white"/>
<rect opacity="0.1" x="1257.47" y="326.397" width="0.988103" height="0.988103" fill="white"/>
<rect opacity="0.1" x="1297.77" y="326.397" width="0.988103" height="0.988103" fill="white"/>
<rect opacity="0.32" x="1337.57" y="326.397" width="1.97621" height="1.97621" fill="white"/>
<rect opacity="0.5" x="1378.37" y="326.397" width="0.988103" height="0.988103" fill="white"/>
<rect opacity="0.7" width="1.48215" height="1.48215" transform="matrix(-1 0 0 1 1399.75 447.794)" fill="white"/>
<rect width="1.97621" height="1.97621" transform="matrix(-1 0 0 1 1238.8 447.794)" fill="white"/>
<rect opacity="0.5" width="0.988103" height="0.988103" transform="matrix(-1 0 0 1 1217.66 447.794)" fill="white"/>
<rect opacity="0.5" x="1216.18" y="346.547" width="1.97621" height="1.97621" fill="white"/>
<rect opacity="0.3" x="1297.52" y="346.547" width="1.48215" height="1.48215" fill="white"/>
<rect opacity="0.4" x="1317.42" y="346.547" width="1.97621" height="1.97621" fill="white"/>
<rect opacity="0.7" x="1357.97" y="346.547" width="1.48215" height="1.48215" fill="white"/>
<rect opacity="0.5" width="0.988103" height="0.988103" transform="matrix(-1 0 0 1 1339.06 467.944)" fill="white"/>
<rect opacity="0.5" width="0.988103" height="0.988103" transform="matrix(-1 0 0 1 1298.75 467.944)" fill="white"/>
<rect opacity="0.1" width="0.988103" height="0.988103" transform="matrix(-1 0 0 1 1278.6 467.944)" fill="white"/>
<rect opacity="0.2" width="1.97621" height="1.97621" transform="matrix(-1 0 0 1 1258.95 467.944)" fill="white"/>
<rect opacity="0.4" width="0.988103" height="0.988103" transform="matrix(-1 0 0 1 1238.3 467.944)" fill="white"/>
<rect opacity="0.5" width="0.988103" height="0.988103" transform="matrix(-1 0 0 1 1217.66 467.944)" fill="white"/>
<rect opacity="0.1" x="1216.42" y="366.698" width="1.48215" height="1.48215" fill="white"/>
<rect opacity="0.2" x="1237.07" y="366.698" width="1.48215" height="1.48215" fill="white"/>
<rect opacity="0.1" x="1256.97" y="366.698" width="1.97621" height="1.97621" fill="white"/>
<rect opacity="0.1" x="1277.62" y="366.698" width="0.988103" height="0.988103" fill="white"/>
<rect opacity="0.5" width="0.988103" height="0.988103" transform="matrix(-1 0 0 1 1399.51 488.095)" fill="white"/>
<rect width="1.97621" height="1.97621" transform="matrix(-1 0 0 1 1359.7 488.095)" fill="white"/>
<rect opacity="0.5" width="0.988103" height="0.988103" transform="matrix(-1 0 0 1 1339.06 488.095)" fill="white"/>
<rect opacity="0.7" width="1.48215" height="1.48215" transform="matrix(-1 0 0 1 1299 488.095)" fill="white"/>
<rect opacity="0.1" width="1.48215" height="1.48215" transform="matrix(-1 0 0 1 1278.85 488.095)" fill="white"/>
<rect opacity="0.1" width="1.48215" height="1.48215" transform="matrix(-1 0 0 1 1258.7 488.095)" fill="white"/>
<rect opacity="0.2" width="0.988103" height="0.988103" transform="matrix(-1 0 0 1 1238.3 488.095)" fill="white"/>
<rect opacity="0.5" width="1.48215" height="1.48215" transform="matrix(-1 0 0 1 1217.91 488.095)" fill="white"/>
</g>
<g opacity="0.5">
<rect opacity="0.5" width="0.988103" height="0.988103" transform="matrix(-1 0 0 1 223.329 265.946)" fill="white"/>
<rect opacity="0.2" width="1.48215" height="1.48215" transform="matrix(-1 0 0 1 182.781 265.946)" fill="white"/>
<rect width="1.97621" height="1.97621" transform="matrix(-1 0 0 1 162.879 265.946)" fill="white"/>
<rect opacity="0.7" width="1.48215" height="1.48215" transform="matrix(-1 0 0 1 61.8781 265.946)" fill="white"/>
<rect opacity="0.5" x="60.6424" y="387.343" width="0.988103" height="0.988103" fill="white"/>
<rect opacity="0.5" x="100.944" y="387.343" width="0.988103" height="0.988103" fill="white"/>
<rect opacity="0.2" x="140.999" y="387.343" width="1.48215" height="1.48215" fill="white"/>
<rect opacity="0.1" x="161.15" y="387.343" width="1.48215" height="1.48215" fill="white"/>
<rect opacity="0.5" x="181.052" y="387.343" width="1.97621" height="1.97621" fill="white"/>
<rect opacity="0.1" x="190.834" y="387.343" width="11.8502" height="0.988103" fill="white"/>
<rect opacity="0.1" x="222.094" y="387.343" width="1.48215" height="1.48215" fill="white"/>
<rect opacity="0.2" width="1.97621" height="1.97621" transform="matrix(-1 0 0 1 203.179 286.096)" fill="white"/>
<rect opacity="0.1" width="1.48215" height="1.48215" transform="matrix(-1 0 0 1 182.781 286.096)" fill="white"/>
<rect opacity="0.7" width="1.48215" height="1.48215" transform="matrix(-1 0 0 1 102.18 286.096)" fill="white"/>
<rect opacity="0.5" width="0.988103" height="0.988103" transform="matrix(-1 0 0 1 61.6315 286.096)" fill="white"/>
<rect width="1.97621" height="1.97621" transform="matrix(-1 0 0 1 41.9762 286.096)" fill="white"/>
<rect opacity="0.7" x="140.999" y="407.494" width="1.48215" height="1.48215" fill="white"/>
<rect opacity="0.1" x="161.15" y="407.494" width="1.48215" height="1.48215" fill="white"/>
<rect opacity="0.1" x="181.545" y="407.494" width="0.988103" height="0.988103" fill="white"/>
<rect opacity="0.1" x="201.449" y="407.494" width="1.48215" height="1.48215" fill="white"/>
<rect opacity="0.5" x="222.34" y="407.494" width="0.988103" height="0.988103" fill="white"/>
<rect opacity="0.7" width="1.48215" height="1.48215" transform="matrix(-1 0 0 1 202.93 306.247)" fill="white"/>
<rect opacity="0.5" x="60.6424" y="427.644" width="0.988103" height="0.988103" fill="white"/>
<rect opacity="0.5" x="80.7954" y="427.644" width="0.988103" height="0.988103" fill="white"/>
<rect x="120.601" y="427.644" width="1.97621" height="1.97621" fill="white"/>
<rect x="160.901" y="427.644" width="1.97621" height="1.97621" fill="white"/>
<rect opacity="0.1" width="1.97621" height="1.97621" transform="matrix(-1 0 0 1 223.823 326.397)" fill="white"/>
<rect opacity="0.1" width="0.988103" height="0.988103" transform="matrix(-1 0 0 1 182.534 326.397)" fill="white"/>
<rect opacity="0.1" width="0.988103" height="0.988103" transform="matrix(-1 0 0 1 142.233 326.397)" fill="white"/>
<rect opacity="0.32" width="1.97621" height="1.97621" transform="matrix(-1 0 0 1 102.427 326.397)" fill="white"/>
<rect opacity="0.5" width="0.988103" height="0.988103" transform="matrix(-1 0 0 1 61.6315 326.397)" fill="white"/>
<rect opacity="0.7" x="40.247" y="447.794" width="1.48215" height="1.48215" fill="white"/>
<rect x="201.2" y="447.794" width="1.97621" height="1.97621" fill="white"/>
<rect opacity="0.5" x="222.34" y="447.794" width="0.988103" height="0.988103" fill="white"/>
<rect opacity="0.5" width="1.97621" height="1.97621" transform="matrix(-1 0 0 1 223.823 346.547)" fill="white"/>
<rect opacity="0.3" width="1.48215" height="1.48215" transform="matrix(-1 0 0 1 142.479 346.547)" fill="white"/>
<rect opacity="0.4" width="1.97621" height="1.97621" transform="matrix(-1 0 0 1 122.577 346.547)" fill="white"/>
<rect opacity="0.7" width="1.48215" height="1.48215" transform="matrix(-1 0 0 1 82.029 346.547)" fill="white"/>
<rect opacity="0.5" x="100.944" y="467.944" width="0.988103" height="0.988103" fill="white"/>
<rect opacity="0.5" x="141.246" y="467.944" width="0.988103" height="0.988103" fill="white"/>
<rect opacity="0.1" x="161.397" y="467.944" width="0.988103" height="0.988103" fill="white"/>
<rect opacity="0.2" x="181.052" y="467.944" width="1.97621" height="1.97621" fill="white"/>
<rect opacity="0.4" x="201.696" y="467.944" width="0.988103" height="0.988103" fill="white"/>
<rect opacity="0.5" x="222.34" y="467.944" width="0.988103" height="0.988103" fill="white"/>
<rect opacity="0.1" width="1.48215" height="1.48215" transform="matrix(-1 0 0 1 223.576 366.698)" fill="white"/>
<rect opacity="0.2" width="1.48215" height="1.48215" transform="matrix(-1 0 0 1 202.93 366.698)" fill="white"/>
<rect opacity="0.1" width="1.97621" height="1.97621" transform="matrix(-1 0 0 1 183.028 366.698)" fill="white"/>
<rect opacity="0.1" width="0.988103" height="0.988103" transform="matrix(-1 0 0 1 162.383 366.698)" fill="white"/>
<rect opacity="0.5" width="0.988103" height="0.988103" transform="matrix(-1 0 0 1 41.4828 366.698)" fill="white"/>
<rect opacity="0.5" x="40.4937" y="488.095" width="0.988103" height="0.988103" fill="white"/>
<rect x="80.2998" y="488.095" width="1.97621" height="1.97621" fill="white"/>
<rect opacity="0.5" x="100.944" y="488.095" width="0.988103" height="0.988103" fill="white"/>
<rect opacity="0.7" x="140.999" y="488.095" width="1.48215" height="1.48215" fill="white"/>
<rect opacity="0.1" x="161.15" y="488.095" width="1.48215" height="1.48215" fill="white"/>
<rect opacity="0.1" x="181.298" y="488.095" width="1.48215" height="1.48215" fill="white"/>
<rect opacity="0.2" x="201.696" y="488.095" width="0.988103" height="0.988103" fill="white"/>
<rect opacity="0.5" x="222.094" y="488.095" width="1.48215" height="1.48215" fill="white"/>
</g>
<g opacity="0.5">
<rect opacity="0.5" x="832.063" y="89.502" width="0.988103" height="0.988103" transform="rotate(90 832.063 89.502)" fill="white"/>
<rect opacity="0.2" x="832.063" y="130.05" width="1.48215" height="1.48215" transform="rotate(90 832.063 130.05)" fill="white"/>
<rect x="832.063" y="149.952" width="1.97621" height="1.97621" transform="rotate(90 832.063 149.952)" fill="white"/>
<rect opacity="0.7" x="832.063" y="250.953" width="1.48215" height="1.48215" transform="rotate(90 832.063 250.953)" fill="white"/>
<rect opacity="0.5" width="0.988103" height="0.988103" transform="matrix(4.37114e-08 -1 -1 -4.37114e-08 710.666 252.189)" fill="white"/>
<rect opacity="0.5" width="0.988103" height="0.988103" transform="matrix(4.37114e-08 -1 -1 -4.37114e-08 710.666 211.887)" fill="white"/>
<rect opacity="0.2" width="1.48215" height="1.48215" transform="matrix(4.37114e-08 -1 -1 -4.37114e-08 710.666 171.832)" fill="white"/>
<rect opacity="0.1" width="1.48215" height="1.48215" transform="matrix(4.37114e-08 -1 -1 -4.37114e-08 710.666 151.681)" fill="white"/>
<rect opacity="0.5" width="1.97621" height="1.97621" transform="matrix(4.37114e-08 -1 -1 -4.37114e-08 710.666 131.779)" fill="white"/>
<rect opacity="0.1" width="11.8502" height="0.988103" transform="matrix(4.37114e-08 -1 -1 -4.37114e-08 710.666 121.997)" fill="white"/>
<rect opacity="0.1" width="1.48215" height="1.48215" transform="matrix(4.37114e-08 -1 -1 -4.37114e-08 710.666 90.7377)" fill="white"/>
<rect opacity="0.2" x="811.912" y="109.653" width="1.97621" height="1.97621" transform="rotate(90 811.912 109.653)" fill="white"/>
<rect opacity="0.1" x="811.912" y="130.05" width="1.48215" height="1.48215" transform="rotate(90 811.912 130.05)" fill="white"/>
<rect opacity="0.7" x="811.912" y="210.651" width="1.48215" height="1.48215" transform="rotate(90 811.912 210.651)" fill="white"/>
<rect opacity="0.5" x="811.912" y="251.2" width="0.988103" height="0.988103" transform="rotate(90 811.912 251.2)" fill="white"/>
<rect x="811.912" y="270.855" width="1.97621" height="1.97621" transform="rotate(90 811.912 270.855)" fill="white"/>
<rect opacity="0.7" width="1.48215" height="1.48215" transform="matrix(4.37114e-08 -1 -1 -4.37114e-08 690.515 272.584)" fill="white"/>
<rect opacity="0.7" width="1.48215" height="1.48215" transform="matrix(4.37114e-08 -1 -1 -4.37114e-08 690.515 171.832)" fill="white"/>
<rect opacity="0.1" width="1.48215" height="1.48215" transform="matrix(4.37114e-08 -1 -1 -4.37114e-08 690.515 151.681)" fill="white"/>
<rect opacity="0.1" width="0.988103" height="0.988103" transform="matrix(4.37114e-08 -1 -1 -4.37114e-08 690.515 131.286)" fill="white"/>
<rect opacity="0.1" width="1.48215" height="1.48215" transform="matrix(4.37114e-08 -1 -1 -4.37114e-08 690.515 111.382)" fill="white"/>
<rect opacity="0.5" width="0.988103" height="0.988103" transform="matrix(4.37114e-08 -1 -1 -4.37114e-08 690.515 90.491)" fill="white"/>
<rect opacity="0.7" x="791.762" y="109.902" width="1.48215" height="1.48215" transform="rotate(90 791.762 109.902)" fill="white"/>
<rect opacity="0.5" width="0.988103" height="0.988103" transform="matrix(4.37114e-08 -1 -1 -4.37114e-08 670.364 252.189)" fill="white"/>
<rect opacity="0.5" width="0.988103" height="0.988103" transform="matrix(4.37114e-08 -1 -1 -4.37114e-08 670.364 232.036)" fill="white"/>
<rect width="1.97621" height="1.97621" transform="matrix(4.37114e-08 -1 -1 -4.37114e-08 670.364 192.23)" fill="white"/>
<rect width="1.97621" height="1.97621" transform="matrix(4.37114e-08 -1 -1 -4.37114e-08 670.364 151.93)" fill="white"/>
<rect opacity="0.1" x="771.611" y="89.0084" width="1.97621" height="1.97621" transform="rotate(90 771.611 89.0084)" fill="white"/>
<rect opacity="0.1" x="771.611" y="130.297" width="0.988103" height="0.988103" transform="rotate(90 771.611 130.297)" fill="white"/>
<rect opacity="0.1" x="771.611" y="170.599" width="0.988103" height="0.988103" transform="rotate(90 771.611 170.599)" fill="white"/>
<rect opacity="0.32" x="771.611" y="210.405" width="1.97621" height="1.97621" transform="rotate(90 771.611 210.405)" fill="white"/>
<rect opacity="0.5" x="771.611" y="251.2" width="0.988103" height="0.988103" transform="rotate(90 771.611 251.2)" fill="white"/>
<rect opacity="0.7" width="1.48215" height="1.48215" transform="matrix(4.37114e-08 -1 -1 -4.37114e-08 650.214 272.584)" fill="white"/>
<rect width="1.97621" height="1.97621" transform="matrix(4.37114e-08 -1 -1 -4.37114e-08 650.214 111.631)" fill="white"/>
<rect opacity="0.5" width="0.988103" height="0.988103" transform="matrix(4.37114e-08 -1 -1 -4.37114e-08 650.214 90.491)" fill="white"/>
<rect opacity="0.5" x="751.462" y="89.0084" width="1.97621" height="1.97621" transform="rotate(90 751.462 89.0084)" fill="white"/>
<rect opacity="0.3" x="751.462" y="170.352" width="1.48215" height="1.48215" transform="rotate(90 751.462 170.352)" fill="white"/>
<rect opacity="0.4" x="751.462" y="190.254" width="1.97621" height="1.97621" transform="rotate(90 751.462 190.254)" fill="white"/>
<rect opacity="0.7" x="751.462" y="230.802" width="1.48215" height="1.48215" transform="rotate(90 751.462 230.802)" fill="white"/>
<rect opacity="0.7" x="751.462" y="271.102" width="1.48215" height="1.48215" transform="rotate(90 751.462 271.102)" fill="white"/>
<rect opacity="0.5" width="0.988103" height="0.988103" transform="matrix(4.37114e-08 -1 -1 -4.37114e-08 630.064 211.887)" fill="white"/>
<rect opacity="0.5" width="0.988103" height="0.988103" transform="matrix(4.37114e-08 -1 -1 -4.37114e-08 630.064 171.585)" fill="white"/>
<rect opacity="0.1" width="0.988103" height="0.988103" transform="matrix(4.37114e-08 -1 -1 -4.37114e-08 630.064 151.435)" fill="white"/>
<rect opacity="0.2" width="1.97621" height="1.97621" transform="matrix(4.37114e-08 -1 -1 -4.37114e-08 630.064 131.779)" fill="white"/>
<rect opacity="0.4" width="0.988103" height="0.988103" transform="matrix(4.37114e-08 -1 -1 -4.37114e-08 630.064 111.135)" fill="white"/>
<rect opacity="0.5" width="0.988103" height="0.988103" transform="matrix(4.37114e-08 -1 -1 -4.37114e-08 630.064 90.491)" fill="white"/>
<rect opacity="0.1" x="731.311" y="89.2551" width="1.48215" height="1.48215" transform="rotate(90 731.311 89.2551)" fill="white"/>
<rect opacity="0.2" x="731.311" y="109.902" width="1.48215" height="1.48215" transform="rotate(90 731.311 109.902)" fill="white"/>
<rect opacity="0.1" x="731.311" y="129.804" width="1.97621" height="1.97621" transform="rotate(90 731.311 129.804)" fill="white"/>
<rect opacity="0.1" x="731.311" y="150.448" width="0.988103" height="0.988103" transform="rotate(90 731.311 150.448)" fill="white"/>
<rect opacity="0.5" x="731.311" y="271.348" width="0.988103" height="0.988103" transform="rotate(90 731.311 271.348)" fill="white"/>
<rect opacity="0.5" width="0.988103" height="0.988103" transform="matrix(4.37114e-08 -1 -1 -4.37114e-08 609.914 272.338)" fill="white"/>
<rect width="1.97621" height="1.97621" transform="matrix(4.37114e-08 -1 -1 -4.37114e-08 609.914 232.531)" fill="white"/>
<rect opacity="0.5" width="0.988103" height="0.988103" transform="matrix(4.37114e-08 -1 -1 -4.37114e-08 609.914 211.887)" fill="white"/>
<rect opacity="0.7" width="1.48215" height="1.48215" transform="matrix(4.37114e-08 -1 -1 -4.37114e-08 609.914 171.832)" fill="white"/>
<rect opacity="0.1" width="1.48215" height="1.48215" transform="matrix(4.37114e-08 -1 -1 -4.37114e-08 609.914 151.681)" fill="white"/>
<rect opacity="0.1" width="1.48215" height="1.48215" transform="matrix(4.37114e-08 -1 -1 -4.37114e-08 609.914 131.533)" fill="white"/>
<rect opacity="0.2" width="0.988103" height="0.988103" transform="matrix(4.37114e-08 -1 -1 -4.37114e-08 609.914 111.135)" fill="white"/>
<rect opacity="0.5" width="1.48215" height="1.48215" transform="matrix(4.37114e-08 -1 -1 -4.37114e-08 609.914 90.7377)" fill="white"/>
</g>
<g opacity="0.7">
<g filter="url(#filter1_f_6066_5157)">
<circle cx="1255.02" cy="407.72" r="10.4198" fill="white"/>
</g>
<g opacity="0.6" filter="url(#filter2_f_6066_5157)">
<circle cx="1255.02" cy="407.72" r="1.957" fill="white"/>
</g>
</g>
<g opacity="0.4">
<g filter="url(#filter3_f_6066_5157)">
<circle cx="1306.02" cy="284.72" r="10.4198" fill="white"/>
</g>
<g opacity="0.6" filter="url(#filter4_f_6066_5157)">
<circle cx="1306.02" cy="284.72" r="1.957" fill="white"/>
</g>
</g>
<g opacity="0.4">
<g filter="url(#filter5_f_6066_5157)">
<circle cx="177.42" cy="304.72" r="10.4198" fill="white"/>
</g>
<g opacity="0.6" filter="url(#filter6_f_6066_5157)">
<circle cx="177.42" cy="304.72" r="1.957" fill="white"/>
</g>
</g>
<g opacity="0.3">
<g filter="url(#filter7_f_6066_5157)">
<circle cx="263.42" cy="408.72" r="10.4198" fill="white"/>
</g>
<g opacity="0.6" filter="url(#filter8_f_6066_5157)">
<circle cx="263.42" cy="408.72" r="1.957" fill="white"/>
</g>
</g>
<g opacity="0.4">
<g filter="url(#filter9_f_6066_5157)">
<circle cx="-1.58023" cy="435.008" r="10.4198" fill="white"/>
</g>
<g opacity="0.6" filter="url(#filter10_f_6066_5157)">
<circle cx="-1.58023" cy="435.008" r="1.957" fill="white"/>
</g>
</g>
<rect opacity="0.8" width="1440" height="527.408" fill="#1B48A4"/>
</g>
<defs>
<filter id="filter0_f_6066_5157" x="314" y="416.008" width="812" height="119" filterUnits="userSpaceOnUse" color-interpolation-filters="sRGB">
<feFlood flood-opacity="0" result="BackgroundImageFix"/>
<feBlend mode="normal" in="SourceGraphic" in2="BackgroundImageFix" result="shape"/>
<feGaussianBlur stdDeviation="25" result="effect1_foregroundBlur_6066_5157"/>
</filter>
<filter id="filter1_f_6066_5157" x="1212.1" y="364.803" width="85.8338" height="85.8338" filterUnits="userSpaceOnUse" color-interpolation-filters="sRGB">
<feFlood flood-opacity="0" result="BackgroundImageFix"/>
<feBlend mode="normal" in="SourceGraphic" in2="BackgroundImageFix" result="shape"/>
<feGaussianBlur stdDeviation="16.2486" result="effect1_foregroundBlur_6066_5157"/>
</filter>
<filter id="filter2_f_6066_5157" x="1250.13" y="402.832" width="9.77539" height="9.77533" filterUnits="userSpaceOnUse" color-interpolation-filters="sRGB">
<feFlood flood-opacity="0" result="BackgroundImageFix"/>
<feBlend mode="normal" in="SourceGraphic" in2="BackgroundImageFix" result="shape"/>
<feGaussianBlur stdDeviation="1.46535" result="effect1_foregroundBlur_6066_5157"/>
</filter>
<filter id="filter3_f_6066_5157" x="1263.1" y="241.803" width="85.8338" height="85.8338" filterUnits="userSpaceOnUse" color-interpolation-filters="sRGB">
<feFlood flood-opacity="0" result="BackgroundImageFix"/>
<feBlend mode="normal" in="SourceGraphic" in2="BackgroundImageFix" result="shape"/>
<feGaussianBlur stdDeviation="16.2486" result="effect1_foregroundBlur_6066_5157"/>
</filter>
<filter id="filter4_f_6066_5157" x="1301.13" y="279.832" width="9.77539" height="9.77533" filterUnits="userSpaceOnUse" color-interpolation-filters="sRGB">
<feFlood flood-opacity="0" result="BackgroundImageFix"/>
<feBlend mode="normal" in="SourceGraphic" in2="BackgroundImageFix" result="shape"/>
<feGaussianBlur stdDeviation="1.46535" result="effect1_foregroundBlur_6066_5157"/>
</filter>
<filter id="filter5_f_6066_5157" x="134.503" y="261.803" width="85.8338" height="85.8338" filterUnits="userSpaceOnUse" color-interpolation-filters="sRGB">
<feFlood flood-opacity="0" result="BackgroundImageFix"/>
<feBlend mode="normal" in="SourceGraphic" in2="BackgroundImageFix" result="shape"/>
<feGaussianBlur stdDeviation="16.2486" result="effect1_foregroundBlur_6066_5157"/>
</filter>
<filter id="filter6_f_6066_5157" x="172.532" y="299.832" width="9.77539" height="9.77533" filterUnits="userSpaceOnUse" color-interpolation-filters="sRGB">
<feFlood flood-opacity="0" result="BackgroundImageFix"/>
<feBlend mode="normal" in="SourceGraphic" in2="BackgroundImageFix" result="shape"/>
<feGaussianBlur stdDeviation="1.46535" result="effect1_foregroundBlur_6066_5157"/>
</filter>
<filter id="filter7_f_6066_5157" x="220.503" y="365.803" width="85.8338" height="85.8338" filterUnits="userSpaceOnUse" color-interpolation-filters="sRGB">
<feFlood flood-opacity="0" result="BackgroundImageFix"/>
<feBlend mode="normal" in="SourceGraphic" in2="BackgroundImageFix" result="shape"/>
<feGaussianBlur stdDeviation="16.2486" result="effect1_foregroundBlur_6066_5157"/>
</filter>
<filter id="filter8_f_6066_5157" x="258.532" y="403.832" width="9.77539" height="9.77533" filterUnits="userSpaceOnUse" color-interpolation-filters="sRGB">
<feFlood flood-opacity="0" result="BackgroundImageFix"/>
<feBlend mode="normal" in="SourceGraphic" in2="BackgroundImageFix" result="shape"/>
<feGaussianBlur stdDeviation="1.46535" result="effect1_foregroundBlur_6066_5157"/>
</filter>
<filter id="filter9_f_6066_5157" x="-44.4972" y="392.091" width="85.8338" height="85.8338" filterUnits="userSpaceOnUse" color-interpolation-filters="sRGB">
<feFlood flood-opacity="0" result="BackgroundImageFix"/>
<feBlend mode="normal" in="SourceGraphic" in2="BackgroundImageFix" result="shape"/>
<feGaussianBlur stdDeviation="16.2486" result="effect1_foregroundBlur_6066_5157"/>
</filter>
<filter id="filter10_f_6066_5157" x="-6.46793" y="430.12" width="9.77539" height="9.77533" filterUnits="userSpaceOnUse" color-interpolation-filters="sRGB">
<feFlood flood-opacity="0" result="BackgroundImageFix"/>
<feBlend mode="normal" in="SourceGraphic" in2="BackgroundImageFix" result="shape"/>
<feGaussianBlur stdDeviation="1.46535" result="effect1_foregroundBlur_6066_5157"/>
</filter>
<linearGradient id="paint0_linear_6066_5157" x1="1361.84" y1="422.218" x2="1266.91" y2="491.74" gradientUnits="userSpaceOnUse">
<stop stop-color="#3FAFD7"/>
<stop offset="1" stop-color="#07528A"/>
</linearGradient>
<linearGradient id="paint1_linear_6066_5157" x1="177.077" y1="348.548" x2="-6.14224" y2="348.548" gradientUnits="userSpaceOnUse">
<stop stop-color="#1852A4"/>
<stop offset="1" stop-color="#091F3E"/>
</linearGradient>
<linearGradient id="paint2_linear_6066_5157" x1="-8.86304" y1="402.003" x2="261.338" y2="402.003" gradientUnits="userSpaceOnUse">
<stop stop-color="white"/>
<stop offset="1" stop-color="white" stop-opacity="0"/>
</linearGradient>
<linearGradient id="paint3_linear_6066_5157" x1="176.89" y1="335.121" x2="408.898" y2="335.121" gradientUnits="userSpaceOnUse">
<stop stop-color="white" stop-opacity="0"/>
<stop offset="1" stop-color="white"/>
</linearGradient>
<linearGradient id="paint4_linear_6066_5157" x1="235.925" y1="399.208" x2="139.649" y2="445.828" gradientUnits="userSpaceOnUse">
<stop stop-color="#07528A"/>
<stop offset="1" stop-color="#3FAFD7"/>
</linearGradient>
<linearGradient id="paint5_linear_6066_5157" x1="480.373" y1="301.629" x2="412.015" y2="301.629" gradientUnits="userSpaceOnUse">
<stop stop-color="#1852A4"/>
<stop offset="1" stop-color="#091F3E"/>
</linearGradient>
<linearGradient id="paint6_linear_6066_5157" x1="637.022" y1="353.498" x2="501.339" y2="436.692" gradientUnits="userSpaceOnUse">
<stop stop-color="#07528A"/>
<stop offset="1" stop-color="#3FAFD7"/>
</linearGradient>
<linearGradient id="paint7_linear_6066_5157" x1="1092.16" y1="225.691" x2="1012.11" y2="291.985" gradientUnits="userSpaceOnUse">
<stop stop-color="#3FAFD7"/>
<stop offset="1" stop-color="#07528A"/>
</linearGradient>
<linearGradient id="paint8_linear_6066_5157" x1="1159.72" y1="307.032" x2="1276.7" y2="332.958" gradientUnits="userSpaceOnUse">
<stop stop-color="white"/>
<stop offset="1" stop-color="white" stop-opacity="0"/>
</linearGradient>
<linearGradient id="paint9_linear_6066_5157" x1="1408.76" y1="261.681" x2="1272.47" y2="261.681" gradientUnits="userSpaceOnUse">
<stop stop-color="#1852A4"/>
<stop offset="1" stop-color="#091F3E"/>
</linearGradient>
<linearGradient id="paint10_linear_6066_5157" x1="1339.51" y1="316.811" x2="1265.77" y2="361.482" gradientUnits="userSpaceOnUse">
<stop stop-color="#07528A"/>
<stop offset="1" stop-color="#3FAFD7"/>
</linearGradient>
<linearGradient id="paint11_linear_6066_5157" x1="1254.9" y1="424.465" x2="1123.95" y2="424.465" gradientUnits="userSpaceOnUse">
<stop stop-color="#1852A4"/>
<stop offset="1" stop-color="#091F3E"/>
</linearGradient>
<linearGradient id="paint12_linear_6066_5157" x1="373.519" y1="475.805" x2="1075.57" y2="494.106" gradientUnits="userSpaceOnUse">
<stop stop-color="#5160FF"/>
<stop offset="1" stop-color="#80E8FF"/>
</linearGradient>
<clipPath id="clip0_6066_5157">
<rect width="1440" height="527" fill="white"/>
</clipPath>
</defs>
</svg>
